# xmcd CD database file
#
# Track frame offsets:
#	182
#	15165
#	31950
#	47767
#	61417
#	74240
#	89690
#	100772
#	115502
#	131177
#
# Disc length: 2015 seconds
#
# Revision: 0
# Processed by: cddbd v1.5.1PL2 Copyright (c) Steve Scherf et al.
# Submitted via: CDex 1.50
#
DISCID=8607dd0a
DTITLE=Confederate Railroad - Country Classics
DYEAR=2001
DGENRE=Country
TTITLE0=Queen Of Memphis
TTITLE1=Daddy Never Was The Cadillac Kind
TTITLE2=Elvis And Andy
TTITLE3=Summer In Dixie
TTITLE4=See Ya
TTITLE5=She Never Cried
TTITLE6=When And Where
TTITLE7=Trashy Women
TTITLE8=Move Over Madonna
TTITLE9=Roll The Dice
EXTD=YEAR: 2001
EXTT0=
EXTT1=
EXTT2=
EXTT3=
EXTT4=
EXTT5=
EXTT6=
EXTT7=
EXTT8=
EXTT9=
PLAYORDER=
